#N canvas 286 44 1269 635 12;
#X obj 158 128 oscparse;
#X obj 158 151 route list;
#X obj 155 91 netreceive -u -b 7400;
#X obj 158 241 nbx 5 17 -1e+37 1e+37 0 0 empty empty empty 0 -10 0 12 #fcfcfc #000000 #000000 0 256;
#X obj 240 242 nbx 5 17 -1e+37 1e+37 0 0 empty empty empty 0 -10 0 12 #fcfcfc #000000 #000000 0 256;
#X obj 370 242 nbx 5 17 -1e+37 1e+37 0 0 empty empty empty 0 -10 0 12 #fcfcfc #000000 #000000 0 256;
#X obj 569 320 nbx 5 17 -1e+37 1e+37 0 0 empty empty empty 0 -10 0 12 #fcfcfc #000000 #000000 0 256;
#X obj 651 321 nbx 5 17 -1e+37 1e+37 0 0 empty empty empty 0 -10 0 12 #fcfcfc #000000 #000000 0 256;
#X obj 733 323 nbx 5 17 -1e+37 1e+37 0 0 empty empty empty 0 -10 0 12 #fcfcfc #000000 #000000 0 256;
#X obj 813 319 tgl 19 0 empty empty empty 0 -10 0 12 #fcfcfc #000000 #000000 0 1;
#X obj 478 244 tgl 19 0 empty empty empty 0 -10 0 12 #fcfcfc #000000 #000000 0 1;
#X obj 475 279 s engaged;
#X obj 157 278 s pitch;
#X obj 573 356 s e_rx;
#X obj 655 356 s e_ry;
#X obj 733 359 s e_rz;
#X obj 570 282 route rx ry rz active, f 47;
#X obj 814 356 s e_active;
#X obj 239 278 s yaw;
#X obj 372 273 s length;
#X obj 158 191 route pitch yaw length engaged, f 62;
#X obj 1023 224 route b;
#X obj 1025 270 route state short long;
#X obj 1020 338 tgl 19 0 empty empty empty 0 -10 0 12 #fcfcfc #000000 #000000 0 1;
#X obj 1073 337 bng 19 250 50 0 empty empty empty 0 -10 0 12 #fcfcfc #000000 #000000;
#X obj 1125 339 bng 19 250 50 0 empty empty empty 0 -10 0 12 #fcfcfc #000000 #000000;
#X obj 1007 409 s footState;
#X obj 1101 413 s footShort;
#X obj 1196 416 s footLong;
#X obj 571 242 route e;
#X connect 0 0 1 0;
#X connect 1 0 20 0;
#X connect 2 0 0 0;
#X connect 3 0 12 0;
#X connect 4 0 18 0;
#X connect 5 0 19 0;
#X connect 6 0 13 0;
#X connect 7 0 14 0;
#X connect 8 0 15 0;
#X connect 9 0 17 0;
#X connect 10 0 11 0;
#X connect 16 0 6 0;
#X connect 16 1 7 0;
#X connect 16 2 8 0;
#X connect 16 3 9 0;
#X connect 20 0 3 0;
#X connect 20 1 4 0;
#X connect 20 2 5 0;
#X connect 20 3 10 0;
#X connect 20 4 21 0;
#X connect 20 4 29 0;
#X connect 21 0 22 0;
#X connect 22 0 23 0;
#X connect 22 1 24 0;
#X connect 22 2 25 0;
#X connect 23 0 26 0;
#X connect 24 0 27 0;
#X connect 25 0 28 0;
#X connect 29 0 16 0;
