#N canvas 0 25 1440 647 12;
#X obj 313 61 r mlp;
#X obj 315 129 nbx 5 17 -1e+37 1e+37 0 0 empty empty empty 0 -10 0 12 #fcfcfc #000000 #000000 0 256;
#X obj 380 131 nbx 5 17 -1e+37 1e+37 0 0 empty empty empty 0 -10 0 12 #fcfcfc #000000 #000000 0 256;
#X obj 446 130 nbx 5 17 -1e+37 1e+37 0 0 empty empty empty 0 -10 0 12 #fcfcfc #000000 #000000 0 256;
#X obj 511 131 nbx 5 17 -1e+37 1e+37 0 0 empty empty empty 0 -10 0 12 #fcfcfc #000000 #000000 0 256;
#X obj 579 131 nbx 5 17 -1e+37 1e+37 0 0 empty empty empty 0 -10 0 12 #fcfcfc #000000 #000000 0 256;
#X obj 644 132 nbx 5 17 -1e+37 1e+37 0 0 empty empty empty 0 -10 0 12 #fcfcfc #000000 #000000 0 256;
#X obj 710 132 nbx 5 17 -1e+37 1e+37 0 0 empty empty empty 0 -10 0 12 #fcfcfc #000000 #000000 0 256;
#X obj 775 133 nbx 5 17 -1e+37 1e+37 0 0 empty empty empty 0 -10 0 12 #fcfcfc #000000 #000000 0 256;
#X obj 844 134 nbx 5 17 -1e+37 1e+37 0 0 empty empty empty 0 -10 0 12 #fcfcfc #000000 #000000 0 256;
#X obj 909 135 nbx 5 17 -1e+37 1e+37 0 0 empty empty empty 0 -10 0 12 #fcfcfc #000000 #000000 0 256;
#X obj 975 135 nbx 5 17 -1e+37 1e+37 0 0 empty empty empty 0 -10 0 12 #fcfcfc #000000 #000000 0 256;
#X obj 1040 136 nbx 5 17 -1e+37 1e+37 0 0 empty empty empty 0 -10 0 12 #fcfcfc #000000 #000000 0 256;
#X obj 1108 136 nbx 5 17 -1e+37 1e+37 0 0 empty empty empty 0 -10 0 12 #fcfcfc #000000 #000000 0 256;
#X obj 1173 137 nbx 5 17 -1e+37 1e+37 0 0 empty empty empty 0 -10 0 12 #fcfcfc #000000 #000000 0 256;
#X obj 1239 137 nbx 5 17 -1e+37 1e+37 0 0 empty empty empty 0 -10 0 12 #fcfcfc #000000 #000000 0 256;
#X obj 1304 138 nbx 5 17 -1e+37 1e+37 0 0 empty empty empty 0 -10 0 12 #fcfcfc #000000 #000000 0 256;
#N canvas 149 25 1250 616 OSCreceiverStuff 1;
#X obj 159 162 route list;
#X obj 155 91 netreceive -u -b 7400;
#X obj 158 241 nbx 5 17 -1e+37 1e+37 0 0 empty empty empty 0 -10 0 12 #fcfcfc #000000 #000000 0 256;
#X obj 366 246 nbx 5 17 -1e+37 1e+37 0 0 empty empty empty 0 -10 0 12 #fcfcfc #000000 #000000 0 256;
#X obj 263 243 nbx 5 17 -1e+37 1e+37 0 0 empty empty empty 0 -10 0 12 #fcfcfc #000000 #000000 0 256;
#X obj 501 245 tgl 19 0 empty empty empty 0 -10 0 12 #fcfcfc #000000 #000000 0 1;
#X obj 498 280 s engaged;
#X obj 367 279 s length;
#X obj 265 274 s yaw;
#X obj 157 278 s pitch;
#X obj 589 220 route mlp;
#X obj 159 191 route pitch yaw length engaged, f 62;
#X obj 570 407 pack 0 1 2 3 4 5 6 7 8 9 10 11 12 13 14 15, f 90;
#X msg 518 342 set \$1;
#X msg 517 375 0.437723;
#X obj 485 343 bng 19 250 50 0 empty empty empty 0 -10 0 12 #fcfcfc #000000 #000000;
#X obj 570 441 s mlp;
#X obj 776 249 tgl 19 0 empty empty empty 0 -10 0 12 #fcfcfc #000000 #000000 0 1;
#X obj 804 189 print;
#X obj 158 128 oscparse -n;
#X obj 571 296 route 0 1 2 3 4 5 6 7 8 9 10 11 12 13 14 15, f 102;
#X obj 574 246 route n active;
#X obj 776 268 s mlpActive;
#X connect 0 0 11 0;
#X connect 1 0 19 0;
#X connect 2 0 9 0;
#X connect 3 0 7 0;
#X connect 4 0 8 0;
#X connect 5 0 6 0;
#X connect 10 0 21 0;
#X connect 11 0 2 0;
#X connect 11 1 4 0;
#X connect 11 2 3 0;
#X connect 11 3 5 0;
#X connect 11 4 10 0;
#X connect 12 0 16 0;
#X connect 13 0 14 0;
#X connect 14 0 12 0;
#X connect 15 0 14 0;
#X connect 17 0 22 0;
#X connect 19 0 0 0;
#X connect 20 0 13 0;
#X connect 20 1 12 1;
#X connect 20 2 12 2;
#X connect 20 3 12 3;
#X connect 20 4 12 4;
#X connect 20 5 12 5;
#X connect 20 6 12 6;
#X connect 20 7 12 7;
#X connect 20 8 12 8;
#X connect 20 9 12 9;
#X connect 20 10 12 10;
#X connect 20 11 12 11;
#X connect 20 12 12 12;
#X connect 20 13 12 13;
#X connect 20 14 12 14;
#X connect 20 15 12 15;
#X connect 20 15 15 0;
#X connect 21 0 20 0;
#X connect 21 1 17 0;
#X connect 21 2 18 0;
#X restore 61 39 pd OSCreceiverStuff;
#X obj 42 93 r pitch;
#X obj 104 94 r yaw;
#X obj 148 94 r length;
#X obj 214 94 r engaged;
#X obj 42 134 nbx 5 17 -1e+37 1e+37 0 0 empty empty empty 0 -10 0 12 #fcfcfc #000000 #000000 0 256;
#X obj 107 135 nbx 5 17 -1e+37 1e+37 0 0 empty empty empty 0 -10 0 12 #fcfcfc #000000 #000000 0 256;
#X obj 173 135 nbx 5 17 -1e+37 1e+37 0 0 empty empty empty 0 -10 0 12 #fcfcfc #000000 #000000 0 256;
#X obj 248 133 tgl 19 0 empty empty empty 0 -10 0 12 #fcfcfc #000000 #000000 0 1;
#X obj 284 192 tgl 19 0 empty empty empty 0 -10 0 12 #fcfcfc #000000 #000000 0 1;
#X obj 285 160 r mlpActive;
#X obj 314 93 route 0 1 2 3 4 5 6 7 8 9 10 11 12 13 14 15, f 152;
#X connect 0 0 28 0;
#X connect 18 0 22 0;
#X connect 19 0 23 0;
#X connect 20 0 24 0;
#X connect 21 0 25 0;
#X connect 27 0 26 0;
#X connect 28 0 1 0;
#X connect 28 1 2 0;
#X connect 28 2 3 0;
#X connect 28 3 4 0;
#X connect 28 4 5 0;
#X connect 28 5 6 0;
#X connect 28 6 7 0;
#X connect 28 7 8 0;
#X connect 28 8 9 0;
#X connect 28 9 10 0;
#X connect 28 10 11 0;
#X connect 28 11 12 0;
#X connect 28 12 13 0;
#X connect 28 13 14 0;
#X connect 28 14 15 0;
#X connect 28 15 16 0;
